<svg id="Effect" enable-background="new 0 0 36 36" height="512" viewBox="0 0 36 36" width="512" xmlns="http://www.w3.org/2000/svg"><g><path d="m31.833 27.623c0-6.917 3.583-11.667 3.583-15s-1.916-10.333-17.249-10.333-17.584 9.417-17.584 13.083c0 17.167 31.25 24.5 31.25 12.25z" fill="#efefef"/></g><g><path d="m20.25 9.75h-2v1c0 .552-.448 1-1 1h-5.5c-.552 0-1-.448-1-1v-1h-2c-1.1 0-2 .9-2 2v12.5c0 1.1.9 2 2 2h11.5c1.1 0 2-.9 2-2v-12.5c0-1.1-.9-2-2-2z" fill="#f3f3f1"/></g><g><path d="m18.25 8.75v2c0 .552-.448 1-1 1h-5.5c-.552 0-1-.448-1-1v-2h1.75c0-1.1.9-2 2-2s2 .9 2 2z" fill="#2fdf84"/></g><g><path d="m29.25 29.25c-1.555-2.488-3.782-4-6.717-4h-.783v2.75l-5-4.75 5-4.75v2.75c4.418 0 7.5 3.582 7.5 8z" fill="#2fdf84"/></g><g><path d="m20.5 10.75v-.975c-.083-.011-.164-.025-.25-.025h-2v1c0 .552-.448 1-1 1h2.25c.552 0 1-.448 1-1z" fill="#d5dbe1"/></g><g><path d="m9 24.25v-12.5c0-1.014.768-1.849 1.75-1.975v-.025h-2c-1.1 0-2 .9-2 2v12.5c0 1.1.9 2 2 2h2.25c-1.1 0-2-.9-2-2z" fill="#d5dbe1"/></g><g><path d="m13 10.75v-2h1.75c0-.683.348-1.289.875-1.65-.321-.22-.708-.35-1.125-.35-1.1 0-2 .9-2 2h-1.75v2c0 .552.448 1 1 1h2.25c-.552 0-1-.448-1-1z" fill="#00b871"/></g><g><path d="m19 23.25 2.75-2.612v-2.138l-5 4.75 5 4.75v-2.138z" fill="#00b871"/></g><g><path d="m24.783 25.25h-.783v.152c2.218.423 3.967 1.795 5.25 3.848 0-1.002-.166-1.958-.463-2.842-1.148-.742-2.478-1.158-4.004-1.158z" fill="#00b871"/></g><g><path d="m29.25 30c-.254 0-.497-.129-.636-.353-1.513-2.419-3.558-3.647-6.08-3.647h-.034v2c0 .3-.179.571-.454.689s-.595.062-.812-.146l-5-4.75c-.15-.141-.234-.337-.234-.543s.084-.402.233-.544l5-4.75c.218-.206.538-.264.812-.146.276.119.455.39.455.69v2.032c4.325.377 7.5 3.998 7.5 8.718 0 .335-.222.629-.543.721-.069.019-.138.029-.207.029zm-7.5-5.5h.784c2.123 0 4.005.738 5.555 2.159-.931-2.777-3.349-4.659-6.339-4.659-.414 0-.75-.336-.75-.75v-1.003l-3.161 3.003 3.161 3.003v-1.003c0-.414.336-.75.75-.75z"/></g><g><path d="m15.55 27h-6.8c-1.517 0-2.75-1.233-2.75-2.75v-12.5c0-1.517 1.233-2.75 2.75-2.75h1.88v1.5h-1.88c-.689 0-1.25.561-1.25 1.25v12.5c0 .689.561 1.25 1.25 1.25h6.8z"/></g><g><path d="m23 15.55h-1.5v-3.8c0-.689-.561-1.25-1.25-1.25h-1.87v-1.5h1.87c1.516 0 2.75 1.233 2.75 2.75z"/></g><g><path d="m17.25 12.5h-5.5c-.965 0-1.75-.785-1.75-1.75v-2c0-.414.336-.75.75-.75h1.104c.327-1.153 1.39-2 2.646-2s2.319.847 2.646 2h1.104c.414 0 .75.336.75.75v2c0 .965-.785 1.75-1.75 1.75zm-5.75-3v1.25c0 .138.112.25.25.25h5.5c.138 0 .25-.112.25-.25v-1.25h-1c-.414 0-.75-.336-.75-.75 0-.689-.561-1.25-1.25-1.25s-1.25.561-1.25 1.25c0 .414-.336.75-.75.75z"/></g><g><path d="m9.75 14h9.5v1.5h-9.5z"/></g><g><path d="m9.75 17h8.44v1.5h-8.44z"/></g><g><path d="m9.75 20h5.28v1.5h-5.28z"/></g><g><path d="m7.75 6.75c-.827 0-1.5-.673-1.5-1.5s.673-1.5 1.5-1.5 1.5.673 1.5 1.5-.673 1.5-1.5 1.5zm0-2c-.276 0-.5.225-.5.5s.224.5.5.5.5-.225.5-.5-.224-.5-.5-.5z" fill="#a4afc1"/></g><g><path d="m27.17 32.816h2v1h-2z" fill="#a4afc1" transform="matrix(.707 -.707 .707 .707 -15.307 29.678)"/></g><g><path d="m31.236 28.75h2v1h-2z" fill="#a4afc1" transform="matrix(.707 -.707 .707 .707 -11.241 31.362)"/></g><g><path d="m31.56 32.316h1v2h-1z" fill="#a4afc1" transform="matrix(.707 -.707 .707 .707 -14.168 32.412)"/></g></svg>